<svg width="520" height="360" viewBox="0 0 520 360" fill="none" xmlns="http://www.w3.org/2000/svg">
  <rect width="520" height="360" rx="28" fill="#F8FAFC"/>
  <rect x="46" y="36" width="180" height="250" rx="16" fill="#E2E8F0"/>
  <rect x="64" y="58" width="144" height="14" rx="7" fill="#94A3B8"/>
  <rect x="64" y="86" width="118" height="10" rx="5" fill="#CBD5F5"/>
  <rect x="64" y="108" width="132" height="10" rx="5" fill="#CBD5F5"/>
  <rect x="64" y="130" width="98" height="10" rx="5" fill="#CBD5F5"/>
  <rect x="64" y="162" width="144" height="70" rx="10" fill="#C7D2FE"/>
  <rect x="64" y="242" width="110" height="10" rx="5" fill="#CBD5F5"/>

  <rect x="214" y="76" width="230" height="220" rx="20" fill="#0F172A"/>
  <rect x="238" y="106" width="120" height="14" rx="7" fill="#38BDF8"/>
  <rect x="238" y="132" width="160" height="10" rx="5" fill="#64748B"/>
  <rect x="238" y="154" width="140" height="10" rx="5" fill="#64748B"/>
  <rect x="238" y="176" width="150" height="10" rx="5" fill="#64748B"/>
  <rect x="238" y="210" width="180" height="64" rx="10" fill="#1E293B"/>
  <rect x="260" y="230" width="40" height="24" rx="6" fill="#38BDF8"/>
  <rect x="308" y="230" width="40" height="24" rx="6" fill="#22C55E"/>
  <rect x="356" y="230" width="40" height="24" rx="6" fill="#F97316"/>

  <rect x="326" y="40" width="146" height="46" rx="12" fill="#E0F2FE" stroke="#38BDF8"/>
  <rect x="342" y="56" width="100" height="12" rx="6" fill="#0EA5E9"/>
</svg>
