<svg width="520" height="360" viewBox="0 0 520 360" fill="none" xmlns="http://www.w3.org/2000/svg">
  <rect width="520" height="360" rx="28" fill="#0B2447"/>
  <rect x="44" y="52" width="432" height="256" rx="20" fill="#12325F"/>
  <rect x="72" y="82" width="180" height="16" rx="8" fill="#E2E8F0"/>
  <rect x="72" y="112" width="120" height="10" rx="5" fill="#7DD3FC"/>
  <rect x="72" y="136" width="146" height="10" rx="5" fill="#7DD3FC"/>
  <rect x="72" y="160" width="130" height="10" rx="5" fill="#7DD3FC"/>

  <rect x="280" y="98" width="160" height="148" rx="16" fill="#0F172A"/>
  <rect x="300" y="124" width="120" height="12" rx="6" fill="#38BDF8"/>
  <rect x="300" y="148" width="84" height="10" rx="5" fill="#475569"/>
  <rect x="300" y="170" width="100" height="10" rx="5" fill="#475569"/>
  <rect x="300" y="196" width="60" height="18" rx="6" fill="#22C55E"/>

  <rect x="72" y="206" width="164" height="12" rx="6" fill="#E2E8F0"/>
  <rect x="72" y="232" width="220" height="10" rx="5" fill="#7DD3FC"/>
  <rect x="72" y="254" width="190" height="10" rx="5" fill="#7DD3FC"/>
</svg>
