<svg width="520" height="360" viewBox="0 0 520 360" fill="none" xmlns="http://www.w3.org/2000/svg">
  <rect width="520" height="360" rx="28" fill="#F8FAFC"/>
  <rect x="52" y="56" width="148" height="80" rx="16" fill="#0F172A"/>
  <rect x="72" y="78" width="108" height="12" rx="6" fill="#38BDF8"/>
  <rect x="72" y="98" width="84" height="8" rx="4" fill="#94A3B8"/>

  <rect x="320" y="56" width="148" height="80" rx="16" fill="#0F172A"/>
  <rect x="340" y="78" width="108" height="12" rx="6" fill="#38BDF8"/>
  <rect x="340" y="98" width="84" height="8" rx="4" fill="#94A3B8"/>

  <rect x="186" y="200" width="148" height="80" rx="16" fill="#0F172A"/>
  <rect x="206" y="222" width="108" height="12" rx="6" fill="#38BDF8"/>
  <rect x="206" y="242" width="84" height="8" rx="4" fill="#94A3B8"/>

  <path d="M200 96H320" stroke="#94A3B8" stroke-width="3" stroke-dasharray="6 6"/>
  <path d="M126 136L252 200" stroke="#94A3B8" stroke-width="3" stroke-dasharray="6 6"/>
  <path d="M394 136L268 200" stroke="#94A3B8" stroke-width="3" stroke-dasharray="6 6"/>

  <circle cx="260" cy="96" r="8" fill="#22C55E"/>
  <circle cx="190" cy="168" r="8" fill="#F97316"/>
  <circle cx="330" cy="168" r="8" fill="#A855F7"/>
</svg>
