<svg viewBox="0 0 642.4 123.7" xmlns="http://www.w3.org/2000/svg">
  <polygon fill="#ff5a00" points="133.8 103.3 170.7 63.3 154.7 25.4 54 25.4 18.1 103.3 133.8 103.3"/>
  <polygon fill="currentColor" points="170.7 25.4 231.9 25.4 210.9 103.3 149.7 103.3 186.9 63.3 170.7 25.4"/>
  <g fill="currentColor">
    <path d="M270.3,67.4v32h-8V28.3h8v31.6h41v-31.6h8v71h-8v-32h-41Z"/>
    <path d="M342.5,54.2c-2.5.7-5,1.6-7.5,2.8l-2.3-6.4c2.9-1.4,5.8-2.4,8.8-3.2,3-.8,6.4-1.2,10.2-1.2,7.2,0,12.7,1.8,16.5,5.3,3.9,3.6,5.8,8.8,5.8,15.8v32.1h-7.5v-7.9c-1.8,2.4-4.3,4.5-7.4,6.3-3.1,1.8-7,2.7-11.6,2.7s-4.8-.3-7.2-1c-2.3-.7-4.4-1.7-6.3-3.1-1.9-1.4-3.3-3.1-4.5-5.1-1.1-2-1.7-4.4-1.7-7.2s.5-5.2,1.6-7.4c1.1-2.1,2.6-3.9,4.6-5.3,2-1.4,4.4-2.5,7.1-3.2,2.7-.7,5.8-1.1,9.1-1.1s6.3.2,8.8.6c2.5.4,4.9.9,7.3,1.6v-1.8c0-4.7-1.4-8.3-4.1-10.7-2.7-2.4-6.6-3.6-11.5-3.6s-5.9.4-8.5,1.1ZM340,75.7c-2.6,2-3.9,4.6-3.9,8s.4,3.2,1.1,4.5c.7,1.3,1.7,2.4,2.9,3.3,1.2.9,2.6,1.6,4.2,2.1,1.6.5,3.3.7,5,.7s4.7-.4,6.8-1.1c2.1-.7,4-1.7,5.6-2.9,1.6-1.3,2.8-2.7,3.7-4.5.9-1.7,1.4-3.6,1.4-5.7v-5.1c-2-.5-4.2-1-6.7-1.5-2.5-.5-5.4-.7-8.6-.7-4.9,0-8.7,1-11.3,2.9Z"/>
    <path d="M421.9,46.9h7.7v52.5h-7.7v-9.1c-1.8,2.8-4.1,5.3-6.9,7.3s-6.5,3-11.1,3-6-.5-8.5-1.5c-2.5-1-4.6-2.5-6.3-4.3-1.7-1.9-3-4.1-4-6.6-.9-2.6-1.4-5.4-1.4-8.5v-32.6h7.8v30.6c0,4.9,1.3,8.7,3.8,11.6,2.5,2.8,6.1,4.3,10.8,4.3s4.3-.4,6.2-1.2c1.9-.8,3.6-1.9,5-3.3,1.4-1.5,2.5-3.2,3.3-5.2s1.2-4.3,1.2-6.7v-30Z"/>
    <path d="M441.7,99.4V25.3h7.8v74.1h-7.8Z"/>
    <path d="M495.9,100.6c-21.9,0-37.6-16.3-37.6-36.5v-.2c0-20.2,15.9-36.7,37.8-36.7s37.6,16.3,37.6,36.5v.2c0,20.2-15.9,36.7-37.8,36.7ZM517.4,63.9c0-12.2-8.9-22.3-21.5-22.3s-21.3,9.9-21.3,22.1v.2c0,12.2,8.9,22.3,21.5,22.3s21.3-9.9,21.3-22.1v-.2Z"/>
    <path d="M566.3,100.4c-10.8,0-21.6-3.8-30.1-11.4l9.2-11.1c6.4,5.3,13.1,8.6,21.2,8.6s10.2-2.5,10.2-6.7v-.2c0-4-2.4-6-14.3-9-14.3-3.7-23.5-7.6-23.5-21.7v-.2c0-12.9,10.3-21.4,24.9-21.4s19.2,3.2,26.4,9l-8.1,11.8c-6.3-4.4-12.5-7-18.5-7s-9.1,2.7-9.1,6.2v.2c0,4.7,3,6.2,15.3,9.3,14.4,3.8,22.5,8.9,22.5,21.3v.2c0,14.1-10.8,22-26.1,22Z"/>
  </g>
</svg>